<?xml version="1.0" encoding="UTF-8"?>
<svg id="Layer_2" xmlns="http://www.w3.org/2000/svg" viewBox="0 0 567.82 177.29">
  <defs>
    <style>
      .cls-1 {
        fill: #231f20;
      }
    </style>
  </defs>
  <g id="Layer_1-2" data-name="Layer_1">
    <g>
      <path class="cls-1" d="M210.53,140.72v-15.15l83.1-87.45,12.75,6.6h-95.25v-16.5h103.05v15l-83.25,87.75-10.95-6.75h94.65v16.5h-104.1Z"/>
      <path class="cls-1" d="M340.88,44.57c-3.7,0-6.75-1.02-9.15-3.08-2.4-2.05-3.6-4.72-3.6-8.02s1.2-5.97,3.6-8.03c2.4-2.05,5.45-3.08,9.15-3.08s6.88,1.03,9.23,3.08c2.35,2.05,3.52,4.73,3.52,8.03s-1.18,5.98-3.52,8.02c-2.35,2.05-5.43,3.08-9.23,3.08ZM331.13,55.22l9.75,1.8,9.75-1.8v85.5h-19.5V55.22Z"/>
      <path class="cls-1" d="M459.23,114.92c0,5.7-1.6,10.65-4.8,14.85-3.2,4.2-8.05,7.42-14.55,9.67-6.5,2.25-14.65,3.38-24.45,3.38s-18.85-1.27-26.25-3.82c-7.4-2.55-13.12-6.15-17.17-10.8-4.05-4.65-6.23-10.02-6.53-16.12h19.8c.6,3.2,2.22,6.03,4.88,8.48,2.65,2.45,6.15,4.33,10.5,5.62,4.35,1.3,9.32,1.95,14.92,1.95,8.1,0,14.2-.98,18.3-2.93,4.1-1.95,6.15-4.92,6.15-8.92,0-2.7-1.38-4.75-4.12-6.15-2.75-1.4-7.93-2.45-15.52-3.15l-16.65-1.5c-9-.8-16.1-2.42-21.3-4.88-5.2-2.45-8.9-5.45-11.1-9-2.2-3.55-3.3-7.32-3.3-11.33,0-5.8,1.8-10.65,5.4-14.55,3.6-3.9,8.6-6.87,15-8.92,6.4-2.05,13.85-3.08,22.35-3.08s16.65,1.23,23.55,3.67c6.9,2.45,12.4,5.85,16.5,10.2,4.1,4.35,6.4,9.38,6.9,15.08h-19.8c-.4-2.3-1.58-4.52-3.53-6.68-1.95-2.15-4.9-3.95-8.85-5.4-3.95-1.45-9.23-2.17-15.83-2.17-7,0-12.48.9-16.42,2.7-3.95,1.8-5.92,4.45-5.92,7.95,0,2.2,1.2,4.08,3.6,5.62,2.4,1.55,6.85,2.62,13.35,3.23l21.45,1.95c8.6.8,15.32,2.33,20.17,4.58,4.85,2.25,8.27,5.13,10.28,8.62,2,3.5,3,7.45,3,11.85Z"/>
      <path class="cls-1" d="M494.47,123.77l-5.7-2.1,54-65.85h22.5l-72.15,84.9h-18.15V25.22h19.5v98.55ZM518.62,98.72l13.65-12.3,35.55,54.3h-22.95l-26.25-42Z"/>
    </g>
    <g>
      <path class="cls-1" d="M188.57,98.74l-32.92-37.77h-.01l-.57-.64-4.64-5.33-.47-.56L106.76,4.88c-2.83-3.25-6.77-4.88-10.72-4.88s-7.9,1.63-10.74,4.88l-43.19,49.55-.47.56-4.64,5.33-.57.64h.01L3.51,98.74c-5.54,6.33-4.38,16.06,2.46,20.94l73.42,52.29c9.96,7.11,23.34,7.11,33.3,0l73.4-52.29c6.86-4.88,8-14.61,2.48-20.94ZM90.92,97.8c0-1.73,2.28-4.82,5.11-5.14,2.84-.3,5.14,1.2,5.14,5.13,0,1.73-2.29,4.83-5.13,5.13-2.83.3-5.13-1.18-5.13-5.11ZM96.06,108.85c2.83.29,5.13,3.46,5.13,5.11.01,3.99-2.29,5.46-5.11,5.14-2.83-.32-5.13-3.48-5.13-5.13-.01-3.99,2.29-5.45,5.11-5.13ZM96.09,125.02c2.83-.44,5.13.67,5.13,5.11.01,1.25-2.29,4.67-5.11,5.14,0,0,0,0-.01,0-2.83.42-5.11-.67-5.13-5.13,0-1.22,2.29-4.69,5.13-5.13ZM96.1,141.2c2.84-.2,5.14,1.53,5.14,5.11,0,2.09-2.29,4.94-5.11,5.14-.01,0-.01,0-.01,0-2.83.2-5.13-1.53-5.13-5.11,0-2.09,2.29-4.94,5.11-5.14ZM99.77,165.47c-.95,1.21-2.27,2.28-3.62,2.16-.34,0-.67-.03-1.01-.07-.32-.04-.64-.09-.95-.14-.31-.05-.62-.11-.89-.2-.28-.1-.54-.22-.78-.41-.95-.69-1.49-2.94-1.49-4.3,0-1.34.54-1.74,1.49-2.95.23-.28.5-.58.78-.87.28-.26.59-.52.89-.73.31-.21.63-.35.95-.45,1.67-.23,3.44-.03,4.63.71.95.69,1.51,2.93,1.51,4.29,0,1.34-.56,1.74-1.51,2.97ZM105.13,86.14c-2.67,1.9-5.82,2.92-9.1,2.92s-6.45-1.01-9.13-2.93l-37.49-26.69L91.92,10.67c1.42-1.64,3.19-1.88,4.12-1.88s2.7.23,4.1,1.86l42.52,48.77-37.52,26.71Z"/>
      <g>
        <path d="M90.89,81.63c0-3.72,2.28-5.37,5.13-5.14t0,0c2.83.23,5.13,3.17,5.13,5.13h0c.01,3.7-2.29,5.37-5.11,5.13t0,0c-2.84-.23-5.13-3.18-5.14-5.11Z"/>
        <path d="M90.86,65.45c0-4.14,2.3-5.49,5.13-5.14t0,0c2.83.35,5.13,3.58,5.13,5.11t0,0c.01,4.12-2.29,5.5-5.11,5.14h0s0,0-.01,0t0,0c-2.83-.34-5.11-3.6-5.13-5.11Z"/>
        <path d="M90.84,49.28c-.01-4.48,2.29-5.61,5.11-5.14t0,0c2.83.43,5.13,3.98,5.14,5.11t0,0c0,4.5-2.29,5.59-5.13,5.14t0,0c-2.83-.44-5.13-3.95-5.13-5.11Z"/>
        <path d="M90.81,33.09c0-2.17,2.29-4.95,5.13-5.13t0,0c2.83-.18,5.13,1.63,5.13,5.11t0,0c0,2.17-2.29,4.94-5.11,5.14t0,0c-2.84.18-5.14-1.62-5.14-5.13Z"/>
        <path d="M95.91,22.04c-1.35-.09-2.67-.25-3.62-1-.95-.75-1.51-2.77-1.51-4.12,0-.34.04-.62.1-.91.07-.25.16-.5.29-.73.13-.23.29-.48.47-.73.19-.25.41-.52.64-.79,1.9-2.62,5.33-2.15,7.25-.96.95.74,1.49,2.76,1.49,4.11,0,1.35-.54,1.97-1.49,3.11-.95,1.14-2.29,2.11-3.63,2.01Z"/>
      </g>
    </g>
  </g>
</svg>